<?xml version="1.0" standalone="no"?>
<!DOCTYPE svg PUBLIC "-//W3C//DTD SVG 20010904//EN"
 "http://www.w3.org/TR/2001/REC-SVG-20010904/DTD/svg10.dtd">
<svg version="1.0" xmlns="http://www.w3.org/2000/svg"
 width="800.000000pt" height="500.000000pt" viewBox="0 0 800.000000 500.000000"
 preserveAspectRatio="xMidYMid meet">

<g transform="translate(0.000000,500.000000) scale(0.100000,-0.100000)"
fill="#000000" stroke="none">
<path d="M6757 3969 c-97 -13 -256 -55 -362 -95 -297 -115 -543 -324 -685
-582 -25 -45 -48 -82 -51 -82 -3 0 -9 26 -13 58 -11 97 -35 173 -87 280 -100
207 -266 334 -506 387 -190 42 -990 42 -1859 -1 l-131 -7 83 -196 c45 -108 97
-232 116 -276 l34 -80 721 -3 722 -2 25 -33 c33 -44 46 -97 46 -191 0 -98 -15
-150 -53 -182 l-29 -24 -714 0 -714 0 0 -725 0 -726 443 3 442 3 3 428 2 427
354 0 c350 0 355 0 442 26 266 76 459 195 520 319 14 30 30 55 34 55 4 0 10
-48 13 -107 25 -465 413 -928 917 -1093 164 -54 298 -73 525 -73 212 -1 315 9
510 50 194 40 438 116 436 136 -1 4 -1 146 -1 316 l0 309 -62 -33 c-208 -110
-572 -180 -805 -156 -351 37 -635 248 -718 536 -12 41 -16 81 -13 137 9 152
117 313 288 427 92 62 204 110 305 132 82 18 261 15 374 -5 136 -25 348 -97
499 -171 l132 -64 0 359 0 359 -69 21 c-393 117 -845 173 -1114 139z"/>
<path d="M1065 3663 c-65 -142 -197 -427 -293 -633 -95 -206 -188 -406 -207
-445 -18 -38 -87 -187 -153 -330 -66 -143 -172 -372 -236 -509 -64 -138 -116
-251 -116 -253 0 -1 194 -3 431 -2 l430 0 21 47 c11 26 44 103 73 172 112 265
457 1078 552 1300 41 96 80 190 86 208 6 17 15 32 21 32 6 0 64 -132 128 -293
64 -160 171 -425 236 -587 66 -162 118 -298 116 -301 -2 -4 -218 -10 -479 -14
-261 -4 -475 -8 -475 -10 0 -1 15 -33 33 -71 18 -38 78 -167 133 -286 l99
-217 904 -1 c719 0 902 3 898 13 -3 6 -52 113 -110 237 -57 124 -189 407 -292
630 -103 223 -267 578 -365 790 -98 212 -219 473 -268 580 l-89 195 -479 3
-479 2 -120 -257z"/>
</g>
</svg>
